<?xml version="1.0" encoding="utf-8"?>
<!-- Generator: Adobe Illustrator 19.0.0, SVG Export Plug-In . SVG Version: 6.00 Build 0)  -->
<svg version="1.1" id="Layer_1" xmlns="http://www.w3.org/2000/svg" xmlns:xlink="http://www.w3.org/1999/xlink"
	 viewBox="0 0 180.6 22.1" enable-background="new 0 0 180.6 22.1" xml:space="preserve">
<path fill="#FFFFFF" d="M10.7,0C8.4,0.1,6.2,0.8,4.3,2.3C-0.5,6-1.4,12.9,2.3,17.8c3.7,4.8,10.6,5.8,15.5,2.1
	c1.9-1.5,3.3-3.7,3.8-5.5L26,0L10.7,0z M11.1,16.5c0.8,0,1.7-0.2,2.4-0.6c0.7-0.4,1.4-0.9,1.9-1.5l0.2-0.3h0.3h2.4h1.1
	c-0.8,1.9-2.1,3.3-3.3,4.1c-1.5,1.1-3.3,1.6-5.2,1.6c-4.9,0-8.9-4-8.9-8.9c0-4.9,4-8.9,8.9-8.9c1.8,0,3.6,0.6,5.1,1.6
	c1.2,0.9,2.6,2.3,3.4,4.3h-1.1H16h-0.3l-0.2-0.3c-0.5-0.6-1-1.2-1.7-1.5C13,5.8,12,5.5,11.1,5.5C8,5.5,5.6,8,5.6,11
	S8,16.5,11.1,16.5z"/>
<path fill="#FFFFFF" d="M161.5,14.2c0,1.1,0.3,1.9,0.8,2.4c0.5,0.5,1.3,0.8,2.2,0.8c0.7,0,1.3-0.2,1.8-0.5c0.5-0.3,0.8-0.7,0.9-1.1
	h3c-0.5,1.5-1.2,2.5-2.2,3.2c-1,0.7-2.2,1-3.6,1c-1,0-1.9-0.2-2.7-0.5c-0.8-0.3-1.5-0.8-2-1.3c-0.5-0.6-1-1.3-1.3-2.1
	c-0.3-0.8-0.4-1.7-0.4-2.7c0-0.9,0.2-1.8,0.5-2.6c0.3-0.8,0.7-1.5,1.3-2.1c0.6-0.6,1.2-1,2-1.4c0.8-0.3,1.6-0.5,2.6-0.5
	c1.1,0,2,0.2,2.8,0.6c0.8,0.4,1.4,1,1.9,1.7c0.5,0.7,0.9,1.5,1.1,2.4c0.2,0.9,0.3,1.8,0.2,2.8H161.5z M167.1,12.1
	c-0.2-0.9-0.4-1.5-0.9-2c-0.4-0.5-1-0.7-1.9-0.7c-0.5,0-1,0.1-1.4,0.3c-0.4,0.2-0.7,0.4-0.9,0.7c-0.2,0.3-0.4,0.6-0.5,0.9
	c-0.1,0.3-0.1,0.6-0.2,0.8H167.1z M154.6,7.2h2.5v2.3h-2.5v6.2c0,0.6,0.1,1,0.3,1.2c0.2,0.2,0.6,0.3,1.2,0.3c0.4,0,0.7,0,1.1-0.1
	v2.7c-0.3,0-0.6,0.1-1,0.1c-0.4,0-0.7,0-1,0c-0.5,0-1,0-1.5-0.1c-0.5-0.1-0.9-0.2-1.3-0.4c-0.4-0.2-0.6-0.5-0.9-0.9
	c-0.2-0.4-0.3-0.9-0.3-1.5V9.4h-2.1V7.2h2.1V3.4h3.4V7.2z M135.9,7.2h3.3v1.7h0.1c0.4-0.7,1-1.2,1.7-1.6c0.7-0.3,1.4-0.5,2.1-0.5
	c0.9,0,1.7,0.1,2.3,0.4c0.6,0.2,1,0.6,1.4,1c0.3,0.4,0.6,1,0.7,1.6c0.1,0.6,0.2,1.3,0.2,2.1v7.7h-3.4v-7c0-1-0.2-1.8-0.5-2.3
	c-0.3-0.5-0.9-0.8-1.7-0.8c-0.9,0-1.6,0.3-2,0.8c-0.4,0.6-0.6,1.5-0.6,2.7v6.5h-3.4V7.2z M124.9,14.2c0,1.1,0.3,1.9,0.8,2.4
	c0.5,0.5,1.3,0.8,2.2,0.8c0.7,0,1.3-0.2,1.8-0.5c0.5-0.3,0.8-0.7,0.9-1.1h3c-0.5,1.5-1.2,2.5-2.2,3.2c-1,0.7-2.2,1-3.6,1
	c-1,0-1.9-0.2-2.7-0.5c-0.8-0.3-1.5-0.8-2-1.3c-0.5-0.6-1-1.3-1.3-2.1c-0.3-0.8-0.4-1.7-0.4-2.7c0-0.9,0.2-1.8,0.5-2.6
	c0.3-0.8,0.7-1.5,1.3-2.1c0.6-0.6,1.2-1,2-1.4c0.8-0.3,1.6-0.5,2.6-0.5c1.1,0,2,0.2,2.8,0.6c0.8,0.4,1.4,1,1.9,1.7
	c0.5,0.7,0.9,1.5,1.1,2.4c0.2,0.9,0.3,1.8,0.2,2.8H124.9z M130.5,12.1c-0.2-0.9-0.4-1.5-0.9-2c-0.4-0.5-1-0.7-1.9-0.7
	c-0.5,0-1,0.1-1.4,0.3c-0.4,0.2-0.7,0.4-0.9,0.7c-0.2,0.3-0.4,0.6-0.5,0.9c-0.1,0.3-0.1,0.6-0.2,0.8H130.5z M84.3,14.2
	c0,1.1,0.3,1.9,0.8,2.4c0.5,0.5,1.3,0.8,2.2,0.8c0.7,0,1.3-0.2,1.8-0.5c0.5-0.3,0.8-0.7,0.9-1.1h3c-0.5,1.5-1.2,2.5-2.2,3.2
	c-1,0.7-2.2,1-3.6,1c-1,0-1.9-0.2-2.7-0.5c-0.8-0.3-1.5-0.8-2-1.3c-0.5-0.6-1-1.3-1.3-2.1c-0.3-0.8-0.4-1.7-0.4-2.7
	c0-0.9,0.2-1.8,0.5-2.6c0.3-0.8,0.7-1.5,1.3-2.1c0.6-0.6,1.2-1,2-1.4c0.8-0.3,1.6-0.5,2.6-0.5c1.1,0,2,0.2,2.8,0.6
	c0.8,0.4,1.4,1,1.9,1.7c0.5,0.7,0.9,1.5,1.1,2.4c0.2,0.9,0.3,1.8,0.2,2.8H84.3z M89.8,12.1c-0.2-0.9-0.4-1.5-0.9-2
	c-0.4-0.5-1-0.7-1.9-0.7c-0.5,0-1,0.1-1.4,0.3c-0.4,0.2-0.7,0.4-0.9,0.7c-0.2,0.3-0.4,0.6-0.5,0.9c-0.1,0.3-0.1,0.6-0.2,0.8H89.8z
	 M67.1,7.2h3.3v1.7h0.1c0.4-0.7,1-1.2,1.7-1.6c0.7-0.3,1.4-0.5,2.1-0.5c0.9,0,1.7,0.1,2.3,0.4c0.6,0.2,1,0.6,1.4,1
	c0.3,0.4,0.6,1,0.7,1.6c0.1,0.6,0.2,1.3,0.2,2.1v7.7h-3.4v-7c0-1-0.2-1.8-0.5-2.3c-0.3-0.5-0.9-0.8-1.7-0.8c-0.9,0-1.6,0.3-2,0.8
	c-0.4,0.6-0.6,1.5-0.6,2.7v6.5h-3.4V7.2z M52,13.4c0-1,0.2-1.9,0.5-2.7c0.3-0.8,0.7-1.5,1.3-2.1c0.6-0.6,1.2-1,2-1.3
	c0.8-0.3,1.7-0.5,2.7-0.5c1,0,1.9,0.2,2.7,0.5c0.8,0.3,1.5,0.8,2,1.3c0.6,0.6,1,1.3,1.3,2.1c0.3,0.8,0.5,1.7,0.5,2.7
	c0,1-0.2,1.9-0.5,2.7c-0.3,0.8-0.7,1.5-1.3,2.1c-0.6,0.6-1.2,1-2,1.3c-0.8,0.3-1.7,0.5-2.7,0.5c-1,0-1.9-0.2-2.7-0.5
	c-0.8-0.3-1.5-0.8-2-1.3c-0.6-0.6-1-1.3-1.3-2.1C52.2,15.3,52,14.4,52,13.4z M180.6,6.9v3.2c-0.2,0-0.4-0.1-0.6-0.1
	c-0.2,0-0.4,0-0.7,0c-0.6,0-1.2,0.1-1.6,0.3c-0.4,0.2-0.8,0.5-1,0.9c-0.3,0.4-0.5,0.8-0.6,1.3c-0.1,0.5-0.2,1-0.2,1.6v5.6h-3.4V7.2
	h3.3v2.3h0c0.2-0.4,0.4-0.7,0.7-1.1c0.3-0.3,0.6-0.6,0.9-0.8c0.4-0.2,0.7-0.4,1.1-0.5c0.4-0.1,0.8-0.2,1.2-0.2
	C180.1,6.8,180.3,6.9,180.6,6.9z M55.4,13.4c0,0.5,0,1,0.1,1.5c0.1,0.5,0.3,0.9,0.5,1.3c0.2,0.4,0.5,0.7,0.9,0.9
	c0.4,0.2,0.9,0.3,1.4,0.3c0.6,0,1.1-0.1,1.5-0.3c0.4-0.2,0.7-0.5,0.9-0.9c0.2-0.4,0.4-0.8,0.5-1.3c0.1-0.5,0.1-1,0.1-1.5
	c0-0.5,0-1-0.1-1.5c-0.1-0.5-0.3-0.9-0.5-1.3c-0.2-0.4-0.5-0.7-0.9-0.9c-0.4-0.2-0.9-0.3-1.5-0.3c-0.6,0-1.1,0.1-1.4,0.3
	c-0.4,0.2-0.7,0.5-0.9,0.9c-0.2,0.4-0.4,0.8-0.5,1.3C55.5,12.4,55.4,12.9,55.4,13.4z"/>
<path fill="#FFFFFF" d="M41.7,16.5c0.8,0,1.7-0.2,2.4-0.6c0.7-0.4,1.4-0.9,1.9-1.5l0.2-0.3h0.3h2.4h1.1c-0.7,1.9-2.1,3.3-3.3,4.1
	c-1.5,1.1-3.3,1.6-5.2,1.6c-4.9,0-8.9-4-8.9-8.9c0-4.9,4-8.9,8.9-8.9c1.8,0,3.6,0.6,5.1,1.6c1.2,0.9,2.6,2.3,3.4,4.3h-1.1h-2.4h-0.3
	l-0.2-0.3c-0.5-0.6-1-1.2-1.7-1.5c-0.8-0.5-1.8-0.7-2.7-0.7c-3,0-5.5,2.5-5.5,5.5S38.7,16.5,41.7,16.5"/>
<path fill="#FFFFFF" d="M111,16.5c0.8,0,1.7-0.2,2.4-0.6c0.7-0.4,1.4-0.9,1.9-1.5l0.2-0.3h0.3h2.4h1.1c-0.7,1.9-2.1,3.3-3.3,4.1
	c-1.5,1.1-3.3,1.6-5.2,1.6c-4.9,0-8.9-4-8.9-8.9c0-4.9,4-8.9,8.9-8.9c1.8,0,3.6,0.6,5.1,1.6c1.2,0.9,2.6,2.3,3.4,4.3h-1.1H116h-0.3
	l-0.2-0.3c-0.5-0.6-1-1.2-1.7-1.5c-0.8-0.5-1.8-0.7-2.7-0.7c-3,0-5.5,2.5-5.5,5.5S108,16.5,111,16.5"/>
</svg>
