<?xml version="1.0" encoding="utf-8"?>
<!-- Generator: Adobe Illustrator 19.0.0, SVG Export Plug-In . SVG Version: 6.00 Build 0)  -->
<svg version="1.1" id="Layer_1" xmlns="http://www.w3.org/2000/svg" xmlns:xlink="http://www.w3.org/1999/xlink" x="0px" y="0px"
	 viewBox="0 0 334.7 74.6" enable-background="new 0 0 334.7 74.6" xml:space="preserve">
<polygon fill="#FFFFFF" points="118.4,46.2 118.4,73.6 87.9,43.1 87.9,15.8 "/>
<polygon fill="#FFFFFF" points="118.9,12.2 91.5,12.2 122,42.6 149.3,42.6 "/>
<polygon fill-rule="evenodd" clip-rule="evenodd" fill="#FFFFFF" points="82.8,7.1 82.8,38.1 77.8,33 77.8,2 108.7,2 113.8,7.1 "/>
<polygon fill="#FFFFFF" points="28.4,42.6 1,42.6 31.5,12.2 58.9,12.2 "/>
<polygon fill="#FFFFFF" points="62.5,43.1 62.5,15.8 32,46.2 32,73.6 "/>
<polygon fill-rule="evenodd" clip-rule="evenodd" fill="#FFFFFF" points="67.5,7.1 36.6,7.1 41.6,2 72.6,2 72.6,33 67.5,38 "/>
<path fill="#FFFFFF" d="M331.6,61h-25.3V14.5h26.4v5.1h-21.1v14.5h19.9v5.1h-19.9V56h21.1V61H331.6z M292.7,37.5
	c0-3.1-0.4-5.7-1.1-8c-0.7-2.2-1.9-4.1-3.4-5.5c-1.5-1.5-3.3-2.6-5.5-3.3c-2.2-0.8-4.9-1.1-7.9-1.1h-7v36.6h6.2
	c6.3,0,11-1.5,14.1-4.6C291.2,48.4,292.7,43.8,292.7,37.5z M298.3,37.4c0,3.8-0.5,7.2-1.5,10.1c-1,3-2.6,5.5-4.6,7.5l0,0
	c-2.1,2-4.6,3.5-7.6,4.5c-3,1-6.4,1.5-10.3,1.5h-11.7V14.5h13.1c3.7,0,6.9,0.5,9.7,1.4c2.8,1,5.3,2.5,7.2,4.4c2,2,3.4,4.4,4.4,7.2
	C297.8,30.5,298.3,33.7,298.3,37.4z M228.5,60.3l-14.4-35.7c0,0.7,0,1.4,0,2.1V61H209V14.5h6.6l15,37.3l15-37.3h6.5V61h-5.3V26.4
	c0-0.4,0-0.9,0-1.4l-14.6,36h-3.5L228.5,60.3z M200.1,61h-25.3V14.5h26.4v5.1H180v14.5H200v5.1H180V56h21.1V61H200.1z"/>
</svg>
