<?xml version="1.0" encoding="utf-8"?>
<!-- Generator: Adobe Illustrator 19.0.0, SVG Export Plug-In . SVG Version: 6.00 Build 0)  -->
<svg version="1.1" id="Layer_1" xmlns="http://www.w3.org/2000/svg" xmlns:xlink="http://www.w3.org/1999/xlink"
	 viewBox="0 0 86.4 74.9" enable-background="new 0 0 86.4 74.9" xml:space="preserve">
<polygon fill-rule="evenodd" clip-rule="evenodd" fill="#094D9C" points="66.8,59.9 66.8,74.9 50.1,58.2 50.1,43.2 "/>
<polygon fill-rule="evenodd" clip-rule="evenodd" fill="#094D9C" points="67.1,41.3 52.1,41.3 68.8,57.9 83.7,57.9 "/>
<polygon fill-rule="evenodd" clip-rule="evenodd" points="47.4,38.5 47.4,55.4 44.6,52.7 44.6,35.7 61.5,35.7 64.3,38.5 "/>
<polygon fill-rule="evenodd" clip-rule="evenodd" fill="#094D9C" points="17.6,57.9 2.6,57.9 19.3,41.3 34.2,41.3 "/>
<polygon fill-rule="evenodd" clip-rule="evenodd" fill="#094D9C" points="36.2,58.2 36.2,43.2 19.6,59.9 19.6,74.9 "/>
<polygon fill-rule="evenodd" clip-rule="evenodd" points="39,38.5 22.1,38.5 24.8,35.7 41.8,35.7 41.8,52.7 39,55.4 "/>
<path fill="#FFFFFF" d="M85.7,25.4H71.9V0h14.4v2.8H74.8v7.9h10.9v2.8H74.8v9.2h11.5v2.8H85.7z M64.5,12.5c0-1.7-0.2-3.1-0.6-4.4
	c-0.4-1.2-1-2.2-1.8-3c-0.8-0.8-1.8-1.4-3-1.8c-1.2-0.4-2.7-0.6-4.3-0.6h-3.8v20h3.4c3.4,0,6-0.8,7.7-2.5
	C63.7,18.5,64.5,16,64.5,12.5z M67.6,12.5c0,2.1-0.3,3.9-0.8,5.5c-0.6,1.6-1.4,3-2.5,4.1l0,0c-1.1,1.1-2.5,1.9-4.2,2.5
	c-1.6,0.5-3.5,0.8-5.6,0.8H48V0h7.1c2,0,3.8,0.3,5.3,0.8c1.6,0.5,2.9,1.3,3.9,2.4c1.1,1.1,1.9,2.4,2.4,4
	C67.3,8.7,67.6,10.5,67.6,12.5z M29.4,25L21.5,5.5c0,0.4,0,0.8,0,1.1v18.8h-2.8V0h3.6l8.2,20.4L38.8,0h3.6v25.4h-2.9v-19
	c0-0.2,0-0.5,0-0.7l-8,19.7h-1.9L29.4,25z M13.8,25.4H0V0h14.4v2.8H2.9v7.9h10.9v2.8H2.9v9.2h11.5v2.8H13.8z"/>
</svg>
