<?xml version="1.0" encoding="UTF-8" standalone="no"?>
<!-- Generator: Adobe Illustrator 19.0.0, SVG Export Plug-In . SVG Version: 6.00 Build 0)  -->

<svg
   xmlns:dc="../purl.org/dc/elements/1.1/default.htm"
   xmlns:cc="../creativecommons.org/ns#"
   xmlns:rdf="http://www.w3.org/1999/02/22-rdf-syntax-ns#"
   xmlns:svg="http://www.w3.org/2000/svg"
   xmlns="http://www.w3.org/2000/svg"
   xmlns:sodipodi="../sodipodi.sourceforge.net/DTD/sodipodi-0.dtd"
   xmlns:inkscape="../www.inkscape.org/namespaces/inkscape"
   version="1.1"
   id="Layer_1"
   x="0px"
   y="0px"
   viewBox="0 0 155.9 90.7"
   style="enable-background:new 0 0 155.9 90.7;"
   xml:space="preserve"
   sodipodi:docname="eu.svg"
   inkscape:version="0.92.3 (2405546, 2018-03-11)"><metadata
   id="metadata55"><rdf:RDF><cc:Work
       rdf:about=""><dc:format>image/svg+xml</dc:format><dc:type
         rdf:resource="../purl.org/dc/dcmitype/StillImage" /><dc:title></dc:title></cc:Work></rdf:RDF></metadata><defs
   id="defs53" /><sodipodi:namedview
   pagecolor="#ffffff"
   bordercolor="#666666"
   borderopacity="1"
   objecttolerance="10"
   gridtolerance="10"
   guidetolerance="10"
   inkscape:pageopacity="0"
   inkscape:pageshadow="2"
   inkscape:window-width="1920"
   inkscape:window-height="1137"
   id="namedview51"
   showgrid="false"
   inkscape:zoom="1.8409237"
   inkscape:cx="77.949997"
   inkscape:cy="45.349998"
   inkscape:window-x="-8"
   inkscape:window-y="-8"
   inkscape:window-maximized="1"
   inkscape:current-layer="Layer_1" />
<style
   type="text/css"
   id="style2">
	.st0{fill-rule:evenodd;clip-rule:evenodd;fill:#FFFFFF;}
	.st1{font-family:'ArialMT';}
	.st2{font-size:7.907px;}
	.st3{fill-rule:evenodd;clip-rule:evenodd;fill:#034EA2;}
	.st4{fill-rule:evenodd;clip-rule:evenodd;fill:#FFF200;}
	.st5{fill-rule:evenodd;clip-rule:evenodd;fill:#007CC3;}
	.st6{fill-rule:evenodd;clip-rule:evenodd;}
</style>
<rect
   y="0.2"
   class="st0"
   width="163.4026"
   height="94.645645"
   id="rect4"
   x="0"
   style="clip-rule:evenodd;fill:#ffffff;fill-rule:evenodd;stroke-width:1.04812455" />
<text
   transform="matrix(1 0 0 1 23.6782 68.5446)"
   class="st1 st2"
   id="text6">Euroopa Liit</text>

<text
   transform="matrix(1 0 0 1 29.8306 76.615)"
   class="st1 st2"
   id="text8">Euroopa</text>

<text
   transform="matrix(1 0 0 1 4.5522 84.6853)"
   class="st1 st2"
   id="text10">Regionaalarengu Fond</text>

<rect
   x="5.7"
   y="5.7"
   class="st3"
   width="77.9"
   height="52.1"
   id="rect12" />
<polygon
   class="st4"
   points="45.2,13.3 47.4,13.3 45.6,14.7 46.3,16.8 44.5,15.5 42.7,16.8 43.4,14.7 41.6,13.3 43.9,13.3   44.5,11.2 "
   id="polygon14" />
<polygon
   class="st4"
   points="45.3,48.1 47.5,48.1 45.7,49.4 46.4,51.6 44.6,50.2 42.8,51.6 43.5,49.4 41.7,48.1 44,48.1 44.6,46 "
   id="polygon16" />
<polygon
   class="st4"
   points="53.9,45.8 56.1,45.8 54.3,47.1 55,49.3 53.2,47.9 51.4,49.3 52.1,47.1 50.3,45.8 52.6,45.8 53.2,43.7   "
   id="polygon18" />
<polygon
   class="st4"
   points="53.9,15.6 56.1,15.6 54.3,17 55,19.1 53.2,17.8 51.4,19.1 52.1,17 50.3,15.6 52.6,15.6 53.2,13.5 "
   id="polygon20" />
<polygon
   class="st4"
   points="60.3,22 62.5,22 60.7,23.3 61.4,25.5 59.6,24.2 57.8,25.5 58.5,23.3 56.7,22 58.9,22 59.6,19.9 "
   id="polygon22" />
<polygon
   class="st4"
   points="60.3,39.5 62.5,39.5 60.7,40.8 61.4,43 59.6,41.6 57.8,43 58.5,40.8 56.7,39.5 58.9,39.5 59.6,37.4 "
   id="polygon24" />
<polygon
   class="st4"
   points="62.7,30.6 64.9,30.6 63.1,32 63.8,34.1 62,32.8 60.2,34.1 60.9,32 59.1,30.6 61.3,30.6 62,28.5 "
   id="polygon26" />
<polygon
   class="st4"
   points="36.4,15.6 38.7,15.6 36.9,17 37.6,19.1 35.8,17.8 34,19.1 34.7,17 32.9,15.6 35.1,15.6 35.8,13.5 "
   id="polygon28" />
<polygon
   class="st4"
   points="30.2,22 32.5,22 30.7,23.4 31.4,25.5 29.6,24.2 27.8,25.5 28.5,23.4 26.6,22 28.9,22 29.6,19.9 "
   id="polygon30" />
<polygon
   class="st4"
   points="27.9,30.6 30.2,30.6 28.4,32 29.1,34.1 27.3,32.8 25.5,34.1 26.2,32 24.3,30.6 26.6,30.6 27.3,28.5 "
   id="polygon32" />
<polygon
   class="st4"
   points="30.2,39.5 32.5,39.5 30.7,40.8 31.4,43 29.6,41.7 27.8,43 28.5,40.8 26.6,39.5 28.9,39.5 29.6,37.4 "
   id="polygon34" />
<polygon
   class="st4"
   points="36.5,45.8 38.8,45.8 37,47.1 37.7,49.3 35.9,48 34,49.3 34.8,47.1 32.9,45.8 35.2,45.8 35.9,43.7 "
   id="polygon36" />
<path
   class="st5"
   d="M127,16.1c6.1,0.6,11.7,2.6,16.5,5.6c0,0,0.1,0.1,0.3,0.2c-6.1-8.7-16-14.9-27.6-15.9c-10.1-0.9-19.7,2.2-27,8  c5.6,1.1,10.5,3.9,14.2,7.8C110.2,17.5,118.4,15.3,127,16.1"
   id="path38" />
<path
   class="st0"
   d="M150.4,40.1C150.4,40.1,150.4,40.1,150.4,40.1C150.4,40.1,150.4,40.1,150.4,40.1  C150.4,40.1,150.4,40.1,150.4,40.1"
   id="path40" />
<path
   class="st6"
   d="M150.4,40.5c0-0.1-0.1-0.6-0.1-0.7c-0.6-6.5-2.9-12.6-6.5-17.8c-0.2-0.1-0.3-0.2-0.3-0.2  c-4.8-3-10.4-5-16.5-5.6c-8.6-0.8-16.8,1.4-23.5,5.6c4.2,4.4,6.9,10.1,7.4,16.4c0.1,1.6,0.1,3.2,0,4.8c-0.2,2.5-0.8,5-1.7,7.2  c-1.6,4.1-4.2,7.7-7.4,10.6l0.1-0.1c12.5-7.2,27.9-10.3,43.2-8c-1.4,1.3-3.5,2.4-5.2,3.3c2.1-0.5,9.3-3.4,9.4-3.6c0,0,0,0,0,0h0  C149.3,52.3,151,46.9,150.4,40.5"
   id="path42" />
<path
   class="st0"
   d="M149.8,39.6c-4.8-3.3-8.8-5.2-17.2-6c-6.4-0.6-12.6,0.5-18.1,2.8c0.1,1.5,0.2,3.1,0,4.7  c-0.7,7.8-4.8,14.4-10.8,18.5c15.3-8.8,29.2-10,41-8.2c0.8,0.1,3.2,0.5,4.3,0.8C150.4,45.4,149.9,40.8,149.8,39.6"
   id="path44" />
<text
   transform="matrix(1 0 0 1 118.2275 68.5681)"
   class="st1 st2"
   id="text46">Eesti</text>

<text
   transform="matrix(1 0 0 1 101.9629 76.6062)"
   class="st1 st2"
   id="text48">tuleviku heaks</text>

</svg>